# xmcd
#
# Track frame offsets:
#	183
#	13973
#	24630
#	38020
#	50145
#	62428
#	75308
#	85565
#	97223
#	106340
#	119928
#	134400
#	147768
#	165558
#	178613
#	190418
#	202318
#	211898
#
# Disc length: 2984 seconds
#
# Revision: 1
# Processed by: cddbd v1.5.2PL0 Copyright (c) Steve Scherf et al.
# Submitted via: audiograbber 1.83.01
#
DISCID=050ba612
DTITLE=Les Plus Beaux Tangos and Paso Dobles - Tangos and Paso Dobles - CD2
DYEAR=1990
DGENRE=Tangos and Paso Dobles
TTITLE0=01 - Pepe Numez - Si Vas A Calatayud (Paso Doble)
TTITLE1=02 - Pepe Numez - Mujer De Sevilla (Paso Doble)
TTITLE2=03 - Pepe Numez - Blancas Margaritas (Tango)
TTITLE3=04 - Pepe Numez - La Viruta (Tango)
TTITLE4=05 - Edouard Duleu - Como Te Quiero (Tango)
TTITLE5=06 - Edouard Duleu - Carnaval (Tango)
TTITLE6=07 - Edouard Duleu - En "er" Mundo (paso doble)
TTITLE7=08 - Edouard Duleu - E Viva Espana ( Paso doble)
TTITLE8=09 - Ramon Ramirez - A Media Luz (Tango)
TTITLE9=10 - Ramon Ramirez - Adios Pampa Mia (Tango)
TTITLE10=11 - Emilio Armangol - Las espanolas ( Paso Doble)
TTITLE11=12 - Emilio Armangol - Revoluto (Paso Doble)
TTITLE12=13 - Ramon RamirezJ - J'aime Tes Grands Yeux (Tango)
TTITLE13=14 - Ramon Ramirez - Baisse Un peu L'abat Jour (Tango)
TTITLE14=15 - Primo Corchia - Pampero (Tango)
TTITLE15=16 - Primo Corchia - Don Augustin Bardi (Tango)
TTITLE16=17 - Pepe Numez - Pepe Romero (Paso Doble)
TTITLE17=18 - Pepe Numez - Aire Del Moncayo (Paso Doble)
EXTD=tango paso doble
EXTT0=
EXTT1=
EXTT2=
EXTT3=
EXTT4=
EXTT5=
EXTT6=
EXTT7=
EXTT8=
EXTT9=
EXTT10=
EXTT11=
EXTT12=
EXTT13=
EXTT14=
EXTT15=
EXTT16=
EXTT17=
PLAYORDER=
